<?xml version="1.0" encoding="UTF-8" standalone="no"?><!DOCTYPE svg PUBLIC "-//W3C//DTD SVG 1.1//EN" "http://www.w3.org/Graphics/SVG/1.1/DTD/svg11.dtd"><svg width="100%" height="100%" viewBox="0 0 200 200" version="1.1" xmlns="http://www.w3.org/2000/svg" xmlns:xlink="http://www.w3.org/1999/xlink" xml:space="preserve" xmlns:serif="http://www.serif.com/" style="fill-rule:evenodd;clip-rule:evenodd;stroke-linecap:round;stroke-linejoin:round;stroke-miterlimit:1.5;"><path d="M138.859,92.819c4.115,6.825 6.483,14.821 6.483,23.364c0,25.026 -20.317,45.343 -45.342,45.343c-25.025,0 -45.342,-20.317 -45.342,-45.343c0,-7.254 1.707,-14.113 4.742,-20.196l40.419,-92.853l39.04,89.685Z" style="fill:url(#_Linear1);"/><path d="M69.724,108.831c0,0 -7.742,43.287 30.26,44.012c0,0 -5.905,-7.93 -10.755,-9.042c-8.255,-1.892 -17.584,-1.461 -19.505,-34.97Z" style="fill:#fff;stroke:#fff;stroke-width:8.49px;"/><g><path d="M41.384,183.747c0,0.244 -0.007,0.451 -0.022,0.622c-0.014,0.171 -0.036,0.318 -0.066,0.44c-0.029,0.122 -0.068,0.227 -0.117,0.315c-0.049,0.088 -0.127,0.188 -0.234,0.3c-0.108,0.112 -0.315,0.256 -0.623,0.432c-0.307,0.176 -0.683,0.344 -1.128,0.506c-0.444,0.161 -0.952,0.295 -1.523,0.402c-0.571,0.108 -1.189,0.162 -1.853,0.162c-1.299,0 -2.471,-0.201 -3.516,-0.601c-1.045,-0.4 -1.933,-0.999 -2.666,-1.794c-0.732,-0.796 -1.294,-1.79 -1.684,-2.981c-0.391,-1.192 -0.586,-2.579 -0.586,-4.161c0,-1.611 0.215,-3.042 0.644,-4.292c0.43,-1.25 1.031,-2.299 1.802,-3.149c0.771,-0.85 1.697,-1.494 2.776,-1.934c1.079,-0.439 2.268,-0.659 3.567,-0.659c0.527,0 1.035,0.044 1.523,0.132c0.489,0.088 0.94,0.203 1.355,0.344c0.415,0.142 0.789,0.305 1.121,0.491c0.332,0.186 0.564,0.344 0.696,0.476c0.131,0.132 0.222,0.242 0.271,0.33c0.048,0.088 0.087,0.2 0.117,0.337c0.029,0.136 0.051,0.297 0.066,0.483c0.014,0.186 0.022,0.415 0.022,0.688c0,0.293 -0.01,0.542 -0.03,0.748c-0.019,0.205 -0.053,0.371 -0.102,0.498c-0.049,0.127 -0.108,0.219 -0.176,0.278c-0.068,0.059 -0.146,0.088 -0.234,0.088c-0.147,0 -0.332,-0.086 -0.557,-0.257c-0.225,-0.17 -0.515,-0.361 -0.872,-0.571c-0.356,-0.21 -0.781,-0.4 -1.274,-0.571c-0.493,-0.171 -1.081,-0.256 -1.765,-0.256c-0.752,0 -1.423,0.153 -2.014,0.461c-0.591,0.308 -1.094,0.747 -1.509,1.318c-0.415,0.572 -0.73,1.263 -0.945,2.073c-0.215,0.811 -0.322,1.724 -0.322,2.739c0,1.114 0.115,2.078 0.344,2.893c0.23,0.816 0.557,1.487 0.982,2.015c0.424,0.527 0.937,0.92 1.538,1.179c0.6,0.259 1.277,0.388 2.028,0.388c0.684,0 1.275,-0.081 1.773,-0.242c0.498,-0.161 0.925,-0.339 1.282,-0.534c0.356,-0.196 0.649,-0.372 0.879,-0.528c0.229,-0.156 0.407,-0.234 0.534,-0.234c0.098,0 0.176,0.019 0.235,0.058c0.058,0.04 0.107,0.118 0.146,0.235c0.039,0.117 0.068,0.281 0.088,0.491c0.02,0.21 0.029,0.49 0.029,0.842Z" style="fill-rule:nonzero;"/><path d="M57.146,179.455c0,1.113 -0.146,2.129 -0.439,3.047c-0.293,0.918 -0.738,1.709 -1.333,2.373c-0.596,0.664 -1.343,1.177 -2.242,1.538c-0.898,0.361 -1.948,0.542 -3.149,0.542c-1.162,0 -2.173,-0.161 -3.032,-0.484c-0.86,-0.322 -1.573,-0.791 -2.139,-1.406c-0.566,-0.615 -0.986,-1.372 -1.26,-2.27c-0.273,-0.899 -0.41,-1.924 -0.41,-3.076c0,-1.114 0.149,-2.132 0.447,-3.055c0.298,-0.923 0.744,-1.714 1.34,-2.373c0.596,-0.659 1.341,-1.169 2.234,-1.53c0.894,-0.362 1.941,-0.542 3.142,-0.542c1.172,0 2.188,0.158 3.047,0.476c0.859,0.317 1.57,0.783 2.131,1.399c0.562,0.615 0.979,1.372 1.253,2.27c0.273,0.898 0.41,1.929 0.41,3.091Zm-3.794,0.146c0,-0.644 -0.051,-1.237 -0.154,-1.779c-0.102,-0.542 -0.276,-1.014 -0.52,-1.414c-0.244,-0.4 -0.569,-0.713 -0.974,-0.938c-0.405,-0.224 -0.915,-0.336 -1.531,-0.336c-0.547,0 -1.025,0.1 -1.435,0.3c-0.41,0.2 -0.747,0.493 -1.011,0.879c-0.264,0.385 -0.461,0.849 -0.593,1.391c-0.132,0.542 -0.198,1.16 -0.198,1.853c0,0.645 0.054,1.238 0.161,1.78c0.108,0.542 0.281,1.013 0.52,1.414c0.239,0.4 0.564,0.71 0.974,0.93c0.41,0.22 0.918,0.33 1.524,0.33c0.556,0 1.04,-0.101 1.45,-0.301c0.41,-0.2 0.747,-0.491 1.011,-0.871c0.263,-0.381 0.459,-0.843 0.586,-1.385c0.127,-0.542 0.19,-1.159 0.19,-1.853Z" style="fill-rule:nonzero;"/><path d="M80.847,186.12c0,0.098 -0.029,0.183 -0.088,0.256c-0.058,0.073 -0.156,0.135 -0.293,0.183c-0.136,0.049 -0.322,0.086 -0.556,0.11c-0.235,0.025 -0.533,0.037 -0.894,0.037c-0.371,0 -0.674,-0.012 -0.908,-0.037c-0.234,-0.024 -0.422,-0.061 -0.564,-0.11c-0.142,-0.048 -0.239,-0.11 -0.293,-0.183c-0.054,-0.073 -0.081,-0.158 -0.081,-0.256l0,-7.749c0,-0.44 -0.041,-0.84 -0.124,-1.201c-0.083,-0.362 -0.21,-0.672 -0.381,-0.93c-0.171,-0.259 -0.386,-0.459 -0.644,-0.601c-0.259,-0.142 -0.569,-0.212 -0.931,-0.212c-0.439,0 -0.883,0.17 -1.333,0.512c-0.449,0.342 -0.937,0.84 -1.465,1.494l0,8.687c0,0.098 -0.029,0.183 -0.087,0.256c-0.059,0.073 -0.159,0.135 -0.301,0.183c-0.141,0.049 -0.329,0.086 -0.564,0.11c-0.234,0.025 -0.527,0.037 -0.879,0.037c-0.361,0 -0.659,-0.012 -0.893,-0.037c-0.235,-0.024 -0.422,-0.061 -0.564,-0.11c-0.142,-0.048 -0.242,-0.11 -0.3,-0.183c-0.059,-0.073 -0.088,-0.158 -0.088,-0.256l0,-7.749c0,-0.44 -0.042,-0.84 -0.125,-1.201c-0.083,-0.362 -0.207,-0.672 -0.373,-0.93c-0.166,-0.259 -0.381,-0.459 -0.645,-0.601c-0.264,-0.142 -0.571,-0.212 -0.923,-0.212c-0.449,0 -0.898,0.17 -1.347,0.512c-0.45,0.342 -0.933,0.84 -1.451,1.494l0,8.687c0,0.098 -0.029,0.183 -0.087,0.256c-0.059,0.073 -0.159,0.135 -0.301,0.183c-0.141,0.049 -0.329,0.086 -0.564,0.11c-0.234,0.025 -0.532,0.037 -0.893,0.037c-0.362,0 -0.659,-0.012 -0.894,-0.037c-0.234,-0.024 -0.422,-0.061 -0.564,-0.11c-0.141,-0.048 -0.241,-0.11 -0.3,-0.183c-0.059,-0.073 -0.088,-0.158 -0.088,-0.256l0,-13.067c0,-0.097 0.024,-0.183 0.073,-0.256c0.049,-0.073 0.137,-0.134 0.264,-0.183c0.127,-0.049 0.29,-0.085 0.491,-0.11c0.2,-0.024 0.451,-0.036 0.754,-0.036c0.313,0 0.571,0.012 0.776,0.036c0.206,0.025 0.364,0.061 0.477,0.11c0.112,0.049 0.192,0.11 0.241,0.183c0.049,0.073 0.073,0.159 0.073,0.256l0,1.509c0.723,-0.781 1.443,-1.367 2.161,-1.758c0.718,-0.39 1.467,-0.585 2.249,-0.585c0.537,0 1.02,0.056 1.45,0.168c0.43,0.112 0.813,0.273 1.15,0.483c0.337,0.21 0.627,0.462 0.871,0.755c0.244,0.293 0.45,0.62 0.616,0.981c0.39,-0.42 0.773,-0.781 1.149,-1.084c0.376,-0.303 0.748,-0.549 1.114,-0.74c0.366,-0.19 0.732,-0.332 1.098,-0.424c0.367,-0.093 0.74,-0.139 1.121,-0.139c0.869,0 1.602,0.146 2.197,0.439c0.596,0.293 1.077,0.691 1.443,1.194c0.366,0.503 0.628,1.091 0.784,1.765c0.156,0.674 0.234,1.387 0.234,2.139l0,8.364Z" style="fill-rule:nonzero;"/><path d="M105.251,186.12c0,0.098 -0.029,0.183 -0.087,0.256c-0.059,0.073 -0.157,0.135 -0.293,0.183c-0.137,0.049 -0.323,0.086 -0.557,0.11c-0.234,0.025 -0.532,0.037 -0.894,0.037c-0.371,0 -0.673,-0.012 -0.908,-0.037c-0.234,-0.024 -0.422,-0.061 -0.564,-0.11c-0.141,-0.048 -0.239,-0.11 -0.293,-0.183c-0.053,-0.073 -0.08,-0.158 -0.08,-0.256l0,-7.749c0,-0.44 -0.042,-0.84 -0.125,-1.201c-0.083,-0.362 -0.21,-0.672 -0.381,-0.93c-0.171,-0.259 -0.385,-0.459 -0.644,-0.601c-0.259,-0.142 -0.569,-0.212 -0.93,-0.212c-0.44,0 -0.884,0.17 -1.333,0.512c-0.45,0.342 -0.938,0.84 -1.465,1.494l0,8.687c0,0.098 -0.03,0.183 -0.088,0.256c-0.059,0.073 -0.159,0.135 -0.3,0.183c-0.142,0.049 -0.33,0.086 -0.564,0.11c-0.235,0.025 -0.528,0.037 -0.879,0.037c-0.362,0 -0.659,-0.012 -0.894,-0.037c-0.234,-0.024 -0.422,-0.061 -0.564,-0.11c-0.141,-0.048 -0.241,-0.11 -0.3,-0.183c-0.059,-0.073 -0.088,-0.158 -0.088,-0.256l0,-7.749c0,-0.44 -0.041,-0.84 -0.124,-1.201c-0.083,-0.362 -0.208,-0.672 -0.374,-0.93c-0.166,-0.259 -0.381,-0.459 -0.645,-0.601c-0.263,-0.142 -0.571,-0.212 -0.922,-0.212c-0.45,0 -0.899,0.17 -1.348,0.512c-0.449,0.342 -0.933,0.84 -1.45,1.494l0,8.687c0,0.098 -0.03,0.183 -0.088,0.256c-0.059,0.073 -0.159,0.135 -0.3,0.183c-0.142,0.049 -0.33,0.086 -0.564,0.11c-0.235,0.025 -0.533,0.037 -0.894,0.037c-0.361,0 -0.659,-0.012 -0.894,-0.037c-0.234,-0.024 -0.422,-0.061 -0.563,-0.11c-0.142,-0.048 -0.242,-0.11 -0.301,-0.183c-0.058,-0.073 -0.088,-0.158 -0.088,-0.256l0,-13.067c0,-0.097 0.025,-0.183 0.074,-0.256c0.048,-0.073 0.136,-0.134 0.263,-0.183c0.127,-0.049 0.291,-0.085 0.491,-0.11c0.2,-0.024 0.452,-0.036 0.754,-0.036c0.313,0 0.572,0.012 0.777,0.036c0.205,0.025 0.364,0.061 0.476,0.11c0.112,0.049 0.193,0.11 0.242,0.183c0.048,0.073 0.073,0.159 0.073,0.256l0,1.509c0.722,-0.781 1.443,-1.367 2.16,-1.758c0.718,-0.39 1.468,-0.585 2.249,-0.585c0.537,0 1.02,0.056 1.45,0.168c0.43,0.112 0.813,0.273 1.15,0.483c0.337,0.21 0.627,0.462 0.872,0.755c0.244,0.293 0.449,0.62 0.615,0.981c0.39,-0.42 0.774,-0.781 1.15,-1.084c0.376,-0.303 0.747,-0.549 1.113,-0.74c0.366,-0.19 0.732,-0.332 1.099,-0.424c0.366,-0.093 0.739,-0.139 1.12,-0.139c0.869,0 1.602,0.146 2.198,0.439c0.595,0.293 1.076,0.691 1.442,1.194c0.367,0.503 0.628,1.091 0.784,1.765c0.156,0.674 0.234,1.387 0.234,2.139l0,8.364Z" style="fill-rule:nonzero;"/><path d="M120.94,179.206c0,0.449 -0.1,0.781 -0.3,0.996c-0.201,0.215 -0.476,0.322 -0.828,0.322l-7.954,0c0,0.557 0.066,1.062 0.198,1.516c0.131,0.454 0.341,0.84 0.63,1.158c0.288,0.317 0.659,0.559 1.113,0.725c0.454,0.166 0.998,0.249 1.633,0.249c0.645,0 1.211,-0.047 1.699,-0.14c0.489,-0.092 0.911,-0.195 1.267,-0.307c0.357,-0.112 0.652,-0.215 0.887,-0.308c0.234,-0.093 0.424,-0.139 0.571,-0.139c0.088,0 0.161,0.017 0.22,0.051c0.058,0.035 0.107,0.096 0.146,0.183c0.039,0.088 0.066,0.213 0.081,0.374c0.014,0.161 0.022,0.364 0.022,0.608c0,0.215 -0.005,0.398 -0.015,0.549c-0.01,0.152 -0.024,0.281 -0.044,0.388c-0.019,0.108 -0.049,0.198 -0.088,0.271c-0.039,0.074 -0.09,0.144 -0.154,0.213c-0.063,0.068 -0.236,0.161 -0.52,0.278c-0.283,0.117 -0.644,0.232 -1.084,0.344c-0.439,0.113 -0.942,0.21 -1.508,0.293c-0.567,0.083 -1.172,0.125 -1.817,0.125c-1.162,0 -2.18,-0.147 -3.054,-0.44c-0.874,-0.293 -1.604,-0.737 -2.19,-1.333c-0.586,-0.595 -1.023,-1.347 -1.311,-2.255c-0.288,-0.909 -0.432,-1.973 -0.432,-3.194c0,-1.162 0.151,-2.209 0.454,-3.142c0.303,-0.933 0.742,-1.724 1.318,-2.373c0.577,-0.649 1.277,-1.145 2.102,-1.487c0.826,-0.342 1.756,-0.512 2.791,-0.512c1.094,0 2.029,0.161 2.805,0.483c0.776,0.322 1.414,0.769 1.912,1.34c0.498,0.572 0.864,1.248 1.098,2.029c0.235,0.781 0.352,1.631 0.352,2.549l0,0.586Zm-3.574,-1.055c0.029,-1.035 -0.178,-1.848 -0.623,-2.439c-0.444,-0.591 -1.13,-0.886 -2.058,-0.886c-0.469,0 -0.876,0.088 -1.223,0.264c-0.347,0.175 -0.635,0.412 -0.864,0.71c-0.23,0.298 -0.406,0.649 -0.528,1.055c-0.122,0.405 -0.193,0.837 -0.212,1.296l5.508,0Z" style="fill-rule:nonzero;"/><path d="M132.366,174.269c0,0.352 -0.01,0.64 -0.03,0.865c-0.019,0.224 -0.048,0.4 -0.087,0.527c-0.04,0.127 -0.091,0.215 -0.154,0.264c-0.064,0.048 -0.144,0.073 -0.242,0.073c-0.078,0 -0.166,-0.017 -0.264,-0.051c-0.097,-0.035 -0.207,-0.071 -0.329,-0.11c-0.122,-0.039 -0.257,-0.076 -0.403,-0.11c-0.147,-0.034 -0.308,-0.051 -0.483,-0.051c-0.206,0 -0.411,0.041 -0.616,0.124c-0.205,0.083 -0.417,0.212 -0.637,0.388c-0.22,0.176 -0.449,0.41 -0.688,0.703c-0.24,0.293 -0.496,0.655 -0.769,1.084l0,8.145c0,0.098 -0.03,0.183 -0.088,0.256c-0.059,0.073 -0.159,0.135 -0.301,0.183c-0.141,0.049 -0.329,0.086 -0.564,0.11c-0.234,0.025 -0.532,0.037 -0.893,0.037c-0.361,0 -0.659,-0.012 -0.894,-0.037c-0.234,-0.024 -0.422,-0.061 -0.564,-0.11c-0.141,-0.048 -0.241,-0.11 -0.3,-0.183c-0.059,-0.073 -0.088,-0.158 -0.088,-0.256l0,-13.067c0,-0.097 0.025,-0.183 0.073,-0.256c0.049,-0.073 0.137,-0.134 0.264,-0.183c0.127,-0.049 0.291,-0.085 0.491,-0.11c0.2,-0.024 0.451,-0.036 0.754,-0.036c0.313,0 0.571,0.012 0.777,0.036c0.205,0.025 0.363,0.061 0.476,0.11c0.112,0.049 0.193,0.11 0.241,0.183c0.049,0.073 0.074,0.159 0.074,0.256l0,1.626c0.341,-0.488 0.664,-0.891 0.966,-1.208c0.303,-0.317 0.591,-0.569 0.865,-0.754c0.273,-0.186 0.547,-0.315 0.82,-0.389c0.273,-0.073 0.547,-0.109 0.82,-0.109c0.127,0 0.264,0.007 0.41,0.021c0.147,0.015 0.298,0.04 0.455,0.074c0.156,0.034 0.292,0.073 0.41,0.117c0.117,0.044 0.202,0.09 0.256,0.139c0.054,0.049 0.093,0.103 0.117,0.161c0.025,0.059 0.047,0.139 0.066,0.242c0.02,0.102 0.034,0.256 0.044,0.461c0.01,0.205 0.015,0.484 0.015,0.835Z" style="fill-rule:nonzero;"/><path d="M144.099,184.04c0,0.254 -0.007,0.466 -0.022,0.637c-0.014,0.171 -0.034,0.315 -0.058,0.432c-0.025,0.117 -0.054,0.213 -0.088,0.286c-0.035,0.073 -0.11,0.166 -0.227,0.278c-0.118,0.112 -0.318,0.249 -0.601,0.41c-0.283,0.161 -0.605,0.305 -0.967,0.432c-0.361,0.127 -0.754,0.23 -1.179,0.308c-0.425,0.078 -0.862,0.117 -1.311,0.117c-1.006,0 -1.897,-0.156 -2.673,-0.469c-0.777,-0.312 -1.429,-0.773 -1.956,-1.384c-0.527,-0.61 -0.925,-1.355 -1.194,-2.234c-0.268,-0.879 -0.403,-1.884 -0.403,-3.017c0,-1.309 0.164,-2.439 0.491,-3.391c0.327,-0.953 0.784,-1.741 1.37,-2.366c0.586,-0.625 1.279,-1.089 2.08,-1.392c0.801,-0.302 1.68,-0.454 2.637,-0.454c0.39,0 0.773,0.034 1.149,0.103c0.376,0.068 0.728,0.161 1.055,0.278c0.327,0.117 0.62,0.249 0.879,0.396c0.259,0.146 0.442,0.273 0.549,0.38c0.108,0.108 0.183,0.198 0.227,0.271c0.044,0.074 0.079,0.169 0.103,0.286c0.024,0.117 0.044,0.261 0.059,0.432c0.014,0.171 0.022,0.379 0.022,0.623c0,0.566 -0.049,0.964 -0.147,1.194c-0.098,0.229 -0.225,0.344 -0.381,0.344c-0.166,0 -0.342,-0.069 -0.527,-0.205c-0.186,-0.137 -0.405,-0.288 -0.659,-0.454c-0.254,-0.166 -0.557,-0.318 -0.909,-0.454c-0.351,-0.137 -0.771,-0.206 -1.259,-0.206c-0.957,0 -1.69,0.369 -2.198,1.106c-0.507,0.738 -0.761,1.819 -0.761,3.245c0,0.703 0.063,1.323 0.19,1.86c0.127,0.537 0.315,0.987 0.564,1.348c0.249,0.361 0.562,0.632 0.938,0.813c0.376,0.181 0.813,0.271 1.311,0.271c0.507,0 0.944,-0.076 1.311,-0.227c0.366,-0.151 0.686,-0.32 0.959,-0.505c0.274,-0.186 0.503,-0.354 0.689,-0.506c0.185,-0.151 0.341,-0.227 0.468,-0.227c0.088,0 0.162,0.025 0.22,0.073c0.059,0.049 0.105,0.14 0.139,0.271c0.034,0.132 0.061,0.301 0.081,0.506c0.019,0.205 0.029,0.469 0.029,0.791Z" style="fill-rule:nonzero;"/><path d="M150.457,186.12c0,0.098 -0.03,0.183 -0.088,0.256c-0.059,0.073 -0.159,0.135 -0.301,0.183c-0.141,0.049 -0.329,0.086 -0.564,0.11c-0.234,0.025 -0.532,0.037 -0.893,0.037c-0.361,0 -0.659,-0.012 -0.894,-0.037c-0.234,-0.024 -0.422,-0.061 -0.564,-0.11c-0.141,-0.048 -0.241,-0.11 -0.3,-0.183c-0.059,-0.073 -0.088,-0.158 -0.088,-0.256l0,-13.037c0,-0.098 0.029,-0.183 0.088,-0.257c0.059,-0.073 0.159,-0.136 0.3,-0.19c0.142,-0.054 0.33,-0.095 0.564,-0.125c0.235,-0.029 0.533,-0.043 0.894,-0.043c0.361,0 0.659,0.014 0.893,0.043c0.235,0.03 0.423,0.071 0.564,0.125c0.142,0.054 0.242,0.117 0.301,0.19c0.058,0.074 0.088,0.159 0.088,0.257l0,13.037Zm0.278,-17.49c0,0.742 -0.152,1.255 -0.454,1.538c-0.303,0.283 -0.864,0.425 -1.685,0.425c-0.83,0 -1.389,-0.137 -1.677,-0.411c-0.288,-0.273 -0.432,-0.766 -0.432,-1.479c0,-0.742 0.149,-1.257 0.447,-1.546c0.297,-0.288 0.861,-0.432 1.691,-0.432c0.821,0 1.377,0.14 1.67,0.418c0.293,0.278 0.44,0.774 0.44,1.487Z" style="fill-rule:nonzero;"/><path d="M165.266,186.164c0,0.137 -0.049,0.244 -0.146,0.322c-0.098,0.078 -0.252,0.134 -0.462,0.169c-0.21,0.034 -0.52,0.051 -0.93,0.051c-0.439,0 -0.759,-0.017 -0.959,-0.051c-0.201,-0.035 -0.342,-0.091 -0.425,-0.169c-0.083,-0.078 -0.125,-0.185 -0.125,-0.322l0,-1.04c-0.537,0.576 -1.15,1.025 -1.838,1.347c-0.689,0.323 -1.453,0.484 -2.293,0.484c-0.693,0 -1.33,-0.09 -1.911,-0.271c-0.581,-0.181 -1.084,-0.449 -1.509,-0.806c-0.425,-0.356 -0.754,-0.798 -0.989,-1.326c-0.234,-0.527 -0.351,-1.142 -0.351,-1.845c0,-0.762 0.149,-1.424 0.446,-1.985c0.298,-0.562 0.743,-1.025 1.333,-1.392c0.591,-0.366 1.326,-0.637 2.205,-0.813c0.879,-0.175 1.899,-0.263 3.062,-0.263l1.274,0l0,-0.791c0,-0.411 -0.042,-0.769 -0.125,-1.077c-0.083,-0.308 -0.219,-0.564 -0.41,-0.769c-0.19,-0.205 -0.444,-0.356 -0.761,-0.454c-0.318,-0.098 -0.711,-0.147 -1.18,-0.147c-0.615,0 -1.164,0.069 -1.648,0.205c-0.483,0.137 -0.91,0.289 -1.281,0.455c-0.371,0.166 -0.681,0.317 -0.931,0.454c-0.249,0.136 -0.451,0.205 -0.607,0.205c-0.108,0 -0.203,-0.034 -0.286,-0.103c-0.083,-0.068 -0.151,-0.166 -0.205,-0.293c-0.054,-0.127 -0.095,-0.283 -0.125,-0.469c-0.029,-0.185 -0.044,-0.39 -0.044,-0.615c0,-0.303 0.025,-0.542 0.074,-0.718c0.048,-0.175 0.141,-0.334 0.278,-0.476c0.137,-0.141 0.376,-0.297 0.718,-0.468c0.342,-0.171 0.742,-0.33 1.201,-0.476c0.459,-0.147 0.959,-0.267 1.501,-0.359c0.542,-0.093 1.101,-0.139 1.678,-0.139c1.025,0 1.901,0.1 2.629,0.3c0.728,0.2 1.326,0.508 1.794,0.923c0.469,0.415 0.811,0.949 1.026,1.604c0.215,0.654 0.322,1.43 0.322,2.329l0,8.789Zm-3.618,-5.596l-1.406,0c-0.596,0 -1.104,0.044 -1.524,0.132c-0.42,0.088 -0.761,0.22 -1.025,0.395c-0.264,0.176 -0.457,0.389 -0.579,0.638c-0.122,0.249 -0.183,0.534 -0.183,0.857c0,0.546 0.173,0.976 0.52,1.289c0.347,0.312 0.828,0.468 1.443,0.468c0.518,0 0.994,-0.131 1.428,-0.395c0.435,-0.264 0.877,-0.65 1.326,-1.157l0,-2.227Z" style="fill-rule:nonzero;"/><path d="M172.634,186.12c0,0.098 -0.029,0.183 -0.088,0.256c-0.058,0.073 -0.158,0.135 -0.3,0.183c-0.142,0.049 -0.329,0.086 -0.564,0.11c-0.234,0.025 -0.532,0.037 -0.893,0.037c-0.362,0 -0.66,-0.012 -0.894,-0.037c-0.234,-0.024 -0.422,-0.061 -0.564,-0.11c-0.142,-0.048 -0.242,-0.11 -0.3,-0.183c-0.059,-0.073 -0.088,-0.158 -0.088,-0.256l0,-19.263c0,-0.097 0.029,-0.185 0.088,-0.263c0.058,-0.079 0.158,-0.145 0.3,-0.198c0.142,-0.054 0.33,-0.095 0.564,-0.125c0.234,-0.029 0.532,-0.044 0.894,-0.044c0.361,0 0.659,0.015 0.893,0.044c0.235,0.03 0.422,0.071 0.564,0.125c0.142,0.053 0.242,0.119 0.3,0.198c0.059,0.078 0.088,0.166 0.088,0.263l0,19.263Z" style="fill-rule:nonzero;"/></g><defs><linearGradient id="_Linear1" x1="0" y1="0" x2="1" y2="0" gradientUnits="userSpaceOnUse" gradientTransform="matrix(90.6846,0,0,158.391,54.6577,82.3301)"><stop offset="0" style="stop-color:#ff6100;stop-opacity:1"/><stop offset="1" style="stop-color:#0094ff;stop-opacity:1"/></linearGradient></defs></svg>