<?xml version="1.0" encoding="UTF-8" standalone="no"?><!DOCTYPE svg PUBLIC "-//W3C//DTD SVG 1.1//EN" "http://www.w3.org/Graphics/SVG/1.1/DTD/svg11.dtd"><svg width="100%" height="100%" viewBox="0 0 512 512" version="1.1" xmlns="http://www.w3.org/2000/svg" xmlns:xlink="http://www.w3.org/1999/xlink" xml:space="preserve" xmlns:serif="http://www.serif.com/" style="fill-rule:evenodd;clip-rule:evenodd;stroke-linejoin:round;stroke-miterlimit:1.41421;"><path d="M511.999,277.27c-36.574,0 -36.574,-33.536 -73.147,-33.536c-36.573,0 -36.574,33.536 -73.147,33.536c-36.572,0 -36.572,-33.536 -73.144,-33.536c-36.572,0 -36.571,33.536 -73.141,33.536c-36.569,0 -36.569,-33.536 -73.138,-33.536c-36.57,0 -36.57,33.536 -73.141,33.536c-36.571,0 -36.571,-33.536 -73.141,-33.536l0,84.596c36.571,0 36.571,33.536 73.141,33.536c36.57,0 36.57,-33.536 73.141,-33.536c36.569,0 36.569,33.536 73.138,33.536c36.571,0 36.571,-33.536 73.141,-33.536c36.572,0 36.572,33.536 73.144,33.536c36.574,0 36.574,-33.536 73.147,-33.536c36.573,0 36.574,33.536 73.147,33.536" style="fill:#319fbc;fill-rule:nonzero;"/><path d="M511.999,208.773c-36.574,0 -36.574,-33.536 -73.147,-33.536c-36.573,0 -36.574,33.536 -73.147,33.536c-36.572,0 -36.572,-33.536 -73.144,-33.536c-36.572,0 -36.571,33.536 -73.141,33.536c-36.569,0 -36.569,-33.536 -73.138,-33.536c-36.57,0 -36.57,33.536 -73.141,33.536c-36.571,0 -36.571,-33.536 -73.141,-33.536l0,84.596c36.571,0 36.571,33.536 73.141,33.536c36.57,0 36.57,-33.536 73.141,-33.536c36.569,0 36.569,33.536 73.138,33.536c36.571,0 36.571,-33.536 73.141,-33.536c36.572,0 36.572,33.536 73.144,33.536c36.574,0 36.574,-33.536 73.147,-33.536c36.573,0 36.574,33.536 73.147,33.536" style="fill:#2690a8;fill-rule:nonzero;"/><path d="M511.999,361.341c-36.574,0 -36.574,-52.549 -73.147,-52.549c-36.573,0 -36.574,52.549 -73.147,52.549c-36.572,0 -36.572,-52.549 -73.144,-52.549c-36.572,0 -36.571,52.549 -73.141,52.549c-36.569,0 -36.569,-52.549 -73.138,-52.549c-36.57,0 -36.57,52.549 -73.141,52.549c-36.571,0 -36.571,-52.55 -73.141,-52.55l0,132.555c36.571,0 36.571,52.548 73.141,52.548c36.57,0 36.57,-52.548 73.141,-52.548c36.569,0 36.569,52.548 73.138,52.548c36.571,0 36.571,-52.548 73.141,-52.548c36.572,0 36.572,52.548 73.144,52.548c36.574,0 36.574,-52.548 73.147,-52.548c36.573,0 36.574,52.548 73.147,52.548" style="fill:#40b3db;fill-rule:nonzero;"/><path d="M511.999,442.961c-36.574,0 -36.574,-52.548 -73.147,-52.548c-36.573,0 -36.574,52.548 -73.147,52.548c-36.572,0 -36.572,-52.548 -73.144,-52.548c-36.572,0 -36.571,52.548 -73.141,52.548c-36.569,0 -36.569,-52.548 -73.138,-52.548c-36.57,0 -36.57,52.548 -73.141,52.548c-36.571,0 -36.571,-52.55 -73.141,-52.55l0,132.555c36.571,0 36.571,52.549 73.141,52.549c36.57,0 36.57,-52.549 73.141,-52.549c36.569,0 36.569,52.549 73.138,52.549c36.571,0 36.571,-52.549 73.141,-52.549c36.572,0 36.572,52.549 73.144,52.549c36.574,0 36.574,-52.549 73.147,-52.549c36.573,0 36.574,52.549 73.147,52.549" style="fill:#40b3db;fill-rule:nonzero;"/></svg>